<?xml version="1.0" encoding="UTF-8" standalone="no"?>
<!DOCTYPE svg PUBLIC "-//W3C//DTD SVG 1.1//EN" "http://www.w3.org/Graphics/SVG/1.1/DTD/svg11.dtd">
<svg xmlns="http://www.w3.org/2000/svg" version="1.1" viewBox="0.00 0.00 1080.00 1080.00">
<g fill="#ffffff">
<path d="
  M 991.92 784.71
  A 20.26 20.26 0.0 0 1 971.66 804.97
  L 128.78 804.97
  A 20.26 20.26 0.0 0 1 108.52 784.71
  L 108.52 43.29
  A 20.26 20.26 0.0 0 1 128.78 23.03
  L 971.66 23.03
  A 20.26 20.26 0.0 0 1 991.92 43.29
  L 991.92 784.71
  Z
  M 919.22 112.40
  A 1.27 1.27 0.0 0 0 918.37 111.63
  Q 915.98 110.99 913.54 110.63
  Q 865.96 103.59 818.97 98.24
  Q 810.06 97.23 799.06 96.23
  Q 789.72 95.39 767.49 93.33
  Q 711.32 88.13 652.75 85.39
  Q 550.17 80.59 454.22 85.55
  Q 425.86 87.01 418.25 87.30
  Q 404.67 87.82 356.27 91.94
  Q 311.03 95.79 296.25 97.32
  Q 242.66 102.87 186.15 111.75
  Q 181.25 112.52 180.59 112.70
  Q 180.06 112.84 179.75 113.19
  Q 179.23 113.76 178.88 115.58
  Q 173.05 146.80 170.31 166.27
  Q 165.25 202.21 161.57 238.31
  Q 160.66 247.17 159.86 258.23
  Q 159.75 259.65 157.24 295.02
  Q 156.53 305.03 156.15 314.99
  Q 154.51 358.38 154.42 363.75
  Q 153.56 420.23 156.83 478.29
  Q 158.68 511.11 160.88 534.55
  Q 164.51 573.25 171.62 619.86
  Q 172.85 627.99 174.01 633.70
  Q 175.30 640.07 176.35 647.56
  C 176.84 651.02 178.00 654.60 178.98 657.96
  A 1.34 1.34 0.0 0 0 180.03 658.91
  Q 184.76 659.79 188.62 660.43
  Q 235.35 668.18 280.31 674.14
  Q 368.76 685.86 460.00 690.64
  C 481.87 691.78 491.34 692.47 507.01 692.73
  Q 554.92 693.52 606.51 692.70
  C 621.93 692.45 637.41 691.37 649.76 690.97
  Q 659.07 690.67 669.71 690.03
  Q 717.41 687.12 763.72 682.30
  Q 807.44 677.75 834.25 674.24
  Q 871.80 669.32 914.20 662.35
  Q 918.56 661.64 919.55 661.21
  Q 920.01 661.01 920.18 660.54
  Q 920.43 659.84 920.98 656.76
  C 923.89 640.30 926.21 627.67 928.35 613.27
  Q 938.37 545.81 942.61 475.99
  Q 943.24 465.61 943.54 456.01
  Q 943.78 448.43 944.75 419.00
  Q 945.43 398.23 944.67 364.57
  Q 944.14 341.69 943.45 318.31
  Q 942.83 297.49 938.12 243.29
  Q 933.07 185.19 921.07 119.60
  Q 920.22 114.95 919.22 112.40
  Z
  M 183.6475 725.0329
  A 11.61 11.36 27.4 0 0 178.5679 709.6044
  A 11.61 11.36 27.4 0 0 163.0325 714.3471
  A 11.61 11.36 27.4 0 0 168.1121 729.7756
  A 11.61 11.36 27.4 0 0 183.6475 725.0329
  Z
  M 221.5470 722.3690
  A 11.69 11.39 13.5 0 0 212.8389 708.5647
  A 11.69 11.39 13.5 0 0 198.8130 716.9110
  A 11.69 11.39 13.5 0 0 207.5211 730.7153
  A 11.69 11.39 13.5 0 0 221.5470 722.3690
  Z
  M 260.3943 720.3754
  A 11.70 11.35 3.8 0 0 249.4722 708.2750
  A 11.70 11.35 3.8 0 0 237.0457 718.8246
  A 11.70 11.35 3.8 0 0 247.9678 730.9250
  A 11.70 11.35 3.8 0 0 260.3943 720.3754
  Z
  M 296.6924 723.1707
  A 11.52 11.34 17.9 0 0 289.2154 708.8389
  A 11.52 11.34 17.9 0 0 274.7676 716.0893
  A 11.52 11.34 17.9 0 0 282.2446 730.4211
  A 11.52 11.34 17.9 0 0 296.6924 723.1707
  Z"
/>
<path d="
  M 684.01 820.46
  Q 683.17 820.43 681.52 821.97
  A 1.84 1.83 -72.8 0 1 680.71 822.40
  Q 679.80 822.61 678.54 822.61
  Q 572.02 822.34 429.25 822.57
  Q 425.50 822.57 421.73 820.00
  Q 421.31 819.71 421.18 819.21
  Q 419.91 814.08 425.07 812.26
  Q 428.88 810.91 433.01 810.93
  Q 526.35 811.44 665.71 811.33
  Q 668.32 811.33 671.30 811.47
  C 674.13 811.59 680.31 811.33 682.73 812.56
  Q 685.78 814.11 686.43 817.81
  Q 686.92 820.57 684.01 820.46
  Z"
/>
<path d="
  M 692.10 875.14
  Q 683.67 876.05 676.25 876.07
  Q 676.12 876.07 423.25 876.63
  Q 420.44 876.63 417.96 875.84
  A 1.13 1.11 5.5 0 1 417.19 874.92
  Q 416.68 870.90 417.37 867.86
  Q 419.92 856.60 420.51 852.80
  Q 422.19 842.04 424.18 833.47
  Q 424.98 830.02 428.79 830.09
  Q 438.06 830.25 441.57 830.37
  Q 449.30 830.64 454.43 830.63
  Q 554.19 830.47 653.96 830.67
  C 662.10 830.69 671.98 830.20 680.10 830.19
  A 2.29 2.29 0.0 0 1 682.23 831.60
  Q 683.36 834.33 684.20 838.27
  Q 687.82 855.45 690.56 865.43
  Q 691.79 869.94 692.66 874.39
  Q 692.79 875.07 692.10 875.14
  Z"
/>
<path d="
  M 119.03 904.86
  C 120.99 900.27 122.62 895.97 125.78 892.29
  C 128.92 888.63 132.88 887.95 138.75 887.72
  C 150.07 887.28 171.33 888.15 185.49 888.20
  Q 359.43 888.86 411.25 888.31
  Q 451.09 887.90 456.75 887.97
  Q 468.69 888.13 476.76 888.00
  Q 510.03 887.47 530.76 887.59
  C 544.13 887.66 559.55 887.07 574.28 887.22
  Q 587.74 887.36 594.28 887.32
  Q 655.81 886.92 684.50 887.18
  Q 732.25 887.63 756.75 887.57
  Q 853.97 887.34 909.27 887.35
  Q 924.20 887.35 947.02 886.86
  Q 950.20 886.79 955.55 887.54
  C 962.11 888.46 967.42 893.78 970.74 899.05
  Q 999.84 945.22 1006.57 955.44
  Q 1019.01 974.36 1029.07 990.20
  Q 1030.93 993.14 1031.43 995.40
  A 2.06 2.06 0.0 0 1 1029.96 997.84
  C 1025.39 999.08 1020.43 999.11 1013.50 998.98
  Q 972.90 998.25 931.51 998.88
  Q 920.00 999.05 911.52 999.07
  Q 774.83 999.33 774.00 999.33
  Q 767.35 999.35 741.50 999.36
  Q 447.86 999.47 119.00 1000.16
  Q 105.55 1000.19 88.01 1000.38
  C 85.86 1000.41 82.62 1000.32 81.24 998.64
  Q 79.37 996.37 81.05 993.33
  Q 82.32 991.04 83.43 988.42
  Q 101.12 946.59 119.03 904.86
  Z
  M 454.50 984.04
  Q 461.17 984.21 468.50 983.81
  Q 473.26 983.54 510.00 984.02
  C 514.91 984.09 520.57 983.69 525.00 983.71
  Q 538.37 983.78 555.89 983.74
  Q 555.99 983.74 568.09 983.91
  Q 574.90 984.01 584.75 983.70
  Q 591.36 983.49 629.00 984.02
  C 632.99 984.08 637.82 983.70 641.00 983.70
  Q 668.01 983.73 679.00 983.89
  Q 687.75 984.02 699.00 983.80
  Q 715.31 983.49 734.81 983.91
  Q 745.38 984.14 754.80 984.00
  Q 779.28 983.64 787.04 983.94
  Q 793.69 984.19 806.74 983.93
  Q 818.80 983.70 832.27 984.00
  Q 843.22 984.25 852.30 984.02
  Q 867.23 983.64 893.29 984.06
  Q 902.65 984.21 913.25 984.05
  Q 940.80 983.62 966.00 984.48
  Q 969.56 984.61 972.91 983.44
  A 1.29 1.29 0.0 0 0 973.67 981.69
  Q 971.69 977.34 968.78 972.73
  Q 961.70 961.54 954.22 949.84
  C 950.80 944.47 946.44 936.36 942.82 931.05
  C 937.97 923.93 933.63 914.58 928.08 907.63
  Q 926.95 906.21 925.61 905.28
  Q 924.66 904.62 922.53 904.62
  Q 894.25 904.65 883.29 904.82
  Q 875.05 904.95 863.31 904.63
  Q 843.70 904.11 828.27 904.48
  Q 823.16 904.61 818.66 904.52
  Q 813.88 904.42 813.83 904.42
  Q 741.50 904.16 705.25 904.27
  Q 694.05 904.30 685.29 904.18
  Q 661.81 903.86 641.28 904.03
  Q 630.45 904.13 621.25 903.93
  Q 601.77 903.52 579.25 903.82
  Q 572.29 903.91 559.26 903.63
  Q 554.07 903.52 525.00 903.49
  Q 516.20 903.48 505.01 903.29
  Q 489.18 903.00 476.60 902.85
  C 469.80 902.77 462.31 903.37 455.25 902.97
  Q 447.05 902.51 439.25 902.52
  Q 378.53 902.63 295.75 902.55
  Q 291.73 902.55 201.75 902.95
  Q 186.51 903.02 171.25 903.40
  Q 170.53 903.42 168.28 903.79
  C 166.48 904.08 165.94 905.04 165.30 906.56
  Q 155.49 929.94 139.34 967.85
  Q 136.12 975.39 134.14 982.70
  A 1.18 1.17 9.2 0 0 135.21 984.18
  C 141.73 984.55 148.53 983.81 155.23 983.82
  Q 199.22 983.83 206.25 983.76
  C 213.68 983.70 221.40 983.99 228.26 983.86
  Q 249.31 983.46 270.60 983.81
  C 278.07 983.93 285.32 983.50 293.27 983.57
  Q 312.76 983.72 340.52 983.73
  Q 350.31 983.73 350.75 983.72
  Q 373.08 983.49 407.50 983.86
  Q 408.29 983.87 411.75 983.75
  Q 425.10 983.30 454.50 984.04
  Z"
/>
<path d="
  M 105.47 1052.86
  C 97.19 1053.17 83.03 1054.37 83.29 1042.49
  Q 83.64 1026.09 83.73 1014.58
  A 0.61 0.60 87.3 0 1 84.26 1013.99
  Q 88.02 1013.58 90.75 1013.56
  Q 251.26 1012.55 410.37 1012.43
  Q 416.92 1012.42 430.37 1012.32
  Q 504.84 1011.76 578.25 1011.67
  Q 596.20 1011.65 598.25 1011.64
  Q 809.94 1010.32 1021.64 1010.34
  Q 1024.96 1010.34 1027.95 1010.80
  Q 1028.61 1010.90 1028.64 1011.56
  Q 1029.51 1030.00 1028.93 1048.62
  A 1.23 1.23 0.0 0 1 1027.87 1049.80
  Q 1025.04 1050.19 1022.28 1050.20
  Q 887.12 1050.98 820.30 1051.09
  Q 593.27 1051.48 497.77 1051.69
  Q 485.37 1051.72 425.00 1051.93
  Q 234.80 1052.61 116.54 1052.71
  Q 109.42 1052.71 105.47 1052.86
  Z"
/>
</g>
<g fill="#ffffff">
<path d="
  M 233.91 909.13
  L 273.38 909.45
  A 1.74 1.74 0.0 0 1 275.08 911.48
  L 273.77 919.45
  A 1.74 1.74 0.0 0 1 272.04 920.91
  L 232.56 920.59
  A 1.74 1.74 0.0 0 1 230.86 918.56
  L 232.18 910.59
  A 1.74 1.74 0.0 0 1 233.91 909.13
  Z"
/>
<path d="
  M 177.50 909.22
  L 217.03 909.89
  A 0.83 0.83 0.0 0 1 217.84 910.72
  L 217.77 919.99
  A 0.83 0.83 0.0 0 1 216.93 920.82
  L 173.72 920.58
  A 0.83 0.83 0.0 0 1 172.96 919.45
  L 176.71 909.75
  A 0.83 0.83 0.0 0 1 177.50 909.22
  Z"
/>
<path d="
  M 289.84 909.22
  L 330.40 909.91
  A 1.17 1.17 0.0 0 1 331.55 911.10
  L 331.36 919.74
  A 1.17 1.17 0.0 0 1 330.18 920.88
  L 288.56 920.30
  A 1.17 1.17 0.0 0 1 287.42 918.96
  L 288.66 910.22
  A 1.17 1.17 0.0 0 1 289.84 909.22
  Z"
/>
<rect x="-21.88" y="-5.54" transform="translate(367.27,914.99) rotate(0.7)" width="43.76" height="11.08" rx="0.26"/>
<rect x="-21.96" y="-5.70" transform="translate(481.18,915.50) rotate(1.2)" width="43.92" height="11.40" rx="0.27"/>
<rect x="-22.15" y="-5.48" transform="translate(423.63,915.34) rotate(0.5)" width="44.30" height="10.96" rx="1.31"/>
<path d="
  M 560.85 920.85
  A 1.13 1.13 0.0 0 1 559.72 921.97
  L 518.97 921.76
  A 3.00 2.74 0.3 0 1 515.98 919.00
  L 516.02 912.78
  A 3.00 2.74 0.3 0 1 519.03 910.06
  L 559.78 910.27
  A 1.13 1.13 0.0 0 1 560.90 911.41
  L 560.85 920.85
  Z"
/>
<path d="
  M 574.05 910.14
  L 616.05 910.82
  A 0.30 0.30 0.0 0 1 616.34 911.09
  L 617.16 921.88
  A 0.30 0.30 0.0 0 1 616.85 922.20
  L 574.27 921.52
  A 0.30 0.30 0.0 0 1 573.97 921.23
  L 573.75 910.45
  A 0.30 0.30 0.0 0 1 574.05 910.14
  Z"
/>
<path d="
  M 673.98 922.05
  L 631.27 921.77
  A 0.33 0.33 0.0 0 1 630.94 921.45
  L 630.74 910.72
  A 0.33 0.33 0.0 0 1 631.07 910.38
  L 672.56 910.63
  A 0.33 0.33 0.0 0 1 672.89 910.92
  L 674.31 921.67
  A 0.33 0.33 0.0 0 1 673.98 922.05
  Z"
/>
<path d="
  M 723.23 922.59
  L 687.27 922.02
  A 0.31 0.31 0.0 0 1 686.96 921.72
  L 686.72 910.69
  A 0.31 0.31 0.0 0 1 687.03 910.38
  L 722.47 911.05
  A 0.31 0.31 0.0 0 1 722.77 911.34
  L 723.55 922.26
  A 0.31 0.31 0.0 0 1 723.23 922.59
  Z"
/>
<path d="
  M 760.89 922.56
  Q 746.85 921.77 736.70 922.12
  A 0.50 0.50 0.0 0 1 736.18 921.62
  L 736.18 911.34
  A 0.58 0.58 0.0 0 1 736.77 910.76
  L 765.61 911.34
  Q 766.26 911.35 766.24 912.01
  Q 765.98 917.67 767.61 922.33
  A 0.91 0.91 0.0 0 1 766.67 923.53
  Q 765.08 923.37 763.75 922.96
  Q 762.84 922.68 760.89 922.56
  Z"
/>
<path d="
  M 815.38 922.47
  L 779.88 922.12
  A 0.33 0.33 0.0 0 1 779.56 921.81
  L 779.08 911.09
  A 0.33 0.33 0.0 0 1 779.41 910.75
  L 811.19 911.21
  A 0.33 0.33 0.0 0 1 811.49 911.42
  L 815.69 922.01
  A 0.33 0.33 0.0 0 1 815.38 922.47
  Z"
/>
<path d="
  M 825.81 911.02
  L 864.62 911.81
  A 0.74 0.74 0.0 0 1 865.30 912.30
  L 868.52 921.39
  A 0.74 0.74 0.0 0 1 867.82 922.37
  L 828.63 922.16
  A 0.74 0.74 0.0 0 1 827.92 921.63
  L 825.08 911.97
  A 0.74 0.74 0.0 0 1 825.81 911.02
  Z"
/>
<path d="
  M 877.24 911.70
  L 919.87 912.00
  A 0.67 0.67 0.0 0 1 920.48 912.41
  L 924.21 921.34
  A 0.67 0.67 0.0 0 1 923.60 922.26
  L 881.74 922.45
  A 0.67 0.67 0.0 0 1 881.14 922.07
  L 876.63 912.66
  A 0.67 0.67 0.0 0 1 877.24 911.70
  Z"
/>
<rect x="-22.99" y="-6.09" transform="translate(226.87,932.22) rotate(-0.6)" width="45.98" height="12.18" rx="0.26"/>
<rect x="-22.07" y="-6.14" transform="translate(284.69,932.27) rotate(-0.4)" width="44.14" height="12.28" rx="0.27"/>
<path d="
  M 364.57 938.15
  L 320.44 938.25
  A 0.56 0.56 0.0 0 1 319.88 937.67
  L 320.33 926.68
  A 0.56 0.56 0.0 0 1 320.89 926.14
  L 364.07 926.05
  A 0.56 0.56 0.0 0 1 364.63 926.59
  L 365.12 937.57
  A 0.56 0.56 0.0 0 1 364.57 938.15
  Z"
/>
<path d="
  M 170.16 926.32
  L 191.31 926.41
  A 0.34 0.34 0.0 0 1 191.64 926.81
  L 189.71 937.92
  A 0.34 0.34 0.0 0 1 189.38 938.21
  L 165.66 938.64
  A 0.34 0.34 0.0 0 1 165.33 938.18
  L 169.85 926.54
  A 0.34 0.34 0.0 0 1 170.16 926.32
  Z"
/>
<rect x="-21.97" y="-6.14" transform="translate(399.66,932.43) rotate(0.4)" width="43.94" height="12.28" rx="0.27"/>
<rect x="-22.11" y="-6.16" transform="translate(456.66,932.48) rotate(-0.6)" width="44.22" height="12.32" rx="1.18"/>
<path d="
  M 535.16 939.46
  L 492.56 938.90
  A 1.15 1.15 0.0 0 1 491.43 937.79
  L 491.15 927.49
  A 1.15 1.15 0.0 0 1 492.32 926.31
  L 534.92 926.87
  A 1.15 1.15 0.0 0 1 536.06 927.99
  L 536.33 938.28
  A 1.15 1.15 0.0 0 1 535.16 939.46
  Z"
/>
<path d="
  M 726.86 926.98
  Q 727.96 926.70 729.30 926.21
  Q 729.74 926.04 730.16 926.27
  Q 732.63 927.60 733.22 927.63
  Q 744.72 928.18 745.74 928.25
  A 0.67 0.66 88.4 0 1 746.35 928.83
  Q 747.11 934.67 746.55 939.72
  Q 746.50 940.18 746.04 940.17
  L 719.69 939.64
  Q 718.71 939.62 718.57 938.65
  Q 718.01 934.61 718.37 929.44
  Q 718.41 928.91 718.82 928.58
  Q 721.29 926.60 723.06 926.81
  Q 726.10 927.17 726.86 926.98
  Z"
/>
<rect x="-22.14" y="-6.34" transform="translate(570.93,933.01) rotate(0.3)" width="44.28" height="12.68" rx="0.26"/>
<path d="
  M 606.57 929.21
  A 2.17 2.17 0.0 0 1 608.73 927.03
  L 644.89 926.90
  A 5.39 1.60 -0.2 0 1 650.28 928.48
  L 650.32 937.58
  A 5.39 1.60 -0.2 0 1 644.93 939.20
  L 608.77 939.33
  A 2.17 2.17 0.0 0 1 606.59 937.17
  L 606.57 929.21
  Z"
/>
<rect x="-20.92" y="-6.22" transform="translate(683.55,933.45) rotate(1.5)" width="41.84" height="12.44" rx="1.40"/>
<path d="
  M 797.13 946.18
  A 1.47 1.47 0.0 0 0 798.20 944.02
  Q 793.88 936.23 791.96 928.03
  Q 791.84 927.50 792.36 927.36
  Q 794.00 926.90 795.50 926.94
  Q 807.25 927.29 816.96 926.90
  A 0.84 0.83 75.8 0 1 817.76 927.38
  Q 824.07 940.92 829.79 957.63
  Q 829.95 958.09 829.46 958.10
  Q 802.99 958.71 782.92 958.16
  Q 782.42 958.15 782.42 957.64
  L 782.42 945.69
  Q 782.42 945.14 782.96 945.24
  C 787.78 946.12 793.06 946.80 797.13 946.18
  Z"
/>
<path d="
  M 762.91 939.42
  Q 761.51 940.03 760.28 939.96
  A 1.19 1.18 2.5 0 1 759.15 938.74
  Q 759.32 932.90 760.25 928.05
  A 0.73 0.73 0.0 0 1 760.98 927.45
  Q 766.11 927.55 773.25 927.34
  Q 777.09 927.23 780.88 928.36
  A 1.16 1.15 -87.1 0 1 781.69 929.26
  Q 783.25 937.36 783.35 937.81
  Q 783.62 939.04 783.56 939.61
  Q 783.45 940.78 782.27 940.71
  Q 773.50 940.17 765.60 939.33
  Q 763.62 939.12 762.91 939.42
  Z"
/>
<path d="
  M 878.22 940.20
  L 836.15 939.84
  A 0.30 0.30 0.0 0 1 835.88 939.65
  L 831.39 928.27
  A 0.30 0.30 0.0 0 1 831.68 927.86
  L 872.34 928.47
  A 0.30 0.30 0.0 0 1 872.60 928.63
  L 878.49 939.76
  A 0.30 0.30 0.0 0 1 878.22 940.20
  Z"
/>
<path d="
  M 935.20 940.42
  L 891.10 939.89
  A 0.34 0.34 0.0 0 1 890.79 939.69
  L 885.72 928.58
  A 0.34 0.34 0.0 0 1 886.03 928.10
  L 928.74 928.51
  A 0.34 0.34 0.0 0 1 929.03 928.68
  L 935.50 939.91
  A 0.34 0.34 0.0 0 1 935.20 940.42
  Z"
/>
<path d="
  M 201.68 957.32
  Q 195.91 957.97 188.75 957.75
  C 178.66 957.45 165.21 958.17 158.04 958.16
  Q 157.50 958.16 157.65 957.64
  Q 159.66 950.95 162.45 944.85
  Q 162.67 944.37 163.20 944.36
  Q 178.51 944.31 192.49 944.60
  Q 194.22 944.64 205.22 944.03
  Q 205.74 944.00 205.59 944.50
  Q 204.03 949.52 203.04 956.01
  A 1.55 1.55 0.0 0 1 201.68 957.32
  Z"
/>
<path d="
  M 219.18 943.98
  L 261.17 944.47
  A 0.35 0.35 0.0 0 1 261.51 944.82
  L 261.30 957.73
  A 0.35 0.35 0.0 0 1 260.95 958.07
  L 217.37 958.05
  A 0.35 0.35 0.0 0 1 217.02 957.65
  L 218.83 944.29
  A 0.35 0.35 0.0 0 1 219.18 943.98
  Z"
/>
<rect x="-23.42" y="-6.74" transform="translate(298.13,951.06) rotate(0.3)" width="46.84" height="13.48" rx="0.27"/>
<rect x="-22.79" y="-6.80" transform="translate(358.23,951.02) rotate(0.7)" width="45.58" height="13.60" rx="0.27"/>
<path d="
  M 437.83 958.27
  L 394.46 957.88
  A 0.42 0.42 0.0 0 1 394.05 957.42
  L 395.38 944.42
  A 0.42 0.42 0.0 0 1 395.81 944.05
  L 437.93 944.74
  A 0.42 0.42 0.0 0 1 438.35 945.17
  L 438.25 957.85
  A 0.42 0.42 0.0 0 1 437.83 958.27
  Z"
/>
<rect x="-20.69" y="-6.77" transform="translate(472.13,951.16) rotate(0.2)" width="41.38" height="13.54" rx="0.27"/>
<rect x="-23.20" y="-6.80" transform="translate(529.60,951.55) rotate(0.5)" width="46.40" height="13.60" rx="0.27"/>
<path d="
  M 565.43 944.70
  L 608.65 945.07
  A 0.31 0.31 0.0 0 1 608.95 945.34
  L 610.40 957.97
  A 0.31 0.31 0.0 0 1 610.09 958.32
  L 566.86 958.12
  A 0.31 0.31 0.0 0 1 566.55 957.85
  L 565.12 945.05
  A 0.31 0.31 0.0 0 1 565.43 944.70
  Z"
/>
<rect x="-21.73" y="-6.70" transform="translate(644.74,951.59) rotate(0.5)" width="43.46" height="13.40" rx="0.27"/>
<path d="
  M 736.11 944.68
  L 769.18 945.73
  A 0.33 0.33 0.0 0 1 769.50 946.05
  L 769.99 958.16
  A 0.33 0.33 0.0 0 1 769.65 958.51
  L 736.63 958.06
  A 0.33 0.33 0.0 0 1 736.31 957.75
  L 735.77 945.03
  A 0.33 0.33 0.0 0 1 736.11 944.68
  Z"
/>
<path d="
  M 679.63 945.01
  L 722.44 945.56
  A 0.33 0.33 0.0 0 1 722.77 945.85
  L 723.96 957.97
  A 0.33 0.33 0.0 0 1 723.63 958.34
  L 680.69 957.89
  A 0.33 0.33 0.0 0 1 680.36 957.59
  L 679.30 945.37
  A 0.33 0.33 0.0 0 1 679.63 945.01
  Z"
/>
<path d="
  M 945.89 958.18
  L 901.62 958.21
  A 0.44 0.44 0.0 0 1 901.24 957.98
  L 895.20 946.80
  A 0.44 0.44 0.0 0 1 895.59 946.15
  L 939.08 946.35
  A 0.44 0.44 0.0 0 1 939.45 946.56
  L 946.26 957.51
  A 0.44 0.44 0.0 0 1 945.89 958.18
  Z"
/>
<path d="
  M 882.34 947.03
  L 887.74 958.49
  A 0.33 0.32 82.3 0 1 887.39 958.95
  Q 884.17 958.38 881.75 958.33
  Q 861.76 957.95 843.77 958.48
  Q 843.16 958.49 842.93 957.92
  L 838.55 946.78
  Q 838.38 946.34 838.85 946.34
  L 881.26 946.34
  A 1.19 1.19 0.0 0 1 882.34 947.03
  Z"
/>
<path d="
  M 221.83 963.34
  L 219.62 977.76
  Q 219.53 978.30 219.00 978.29
  Q 180.76 977.85 149.17 978.37
  Q 148.66 978.37 148.85 977.92
  L 154.44 964.29
  Q 154.63 963.84 155.11 963.85
  Q 165.81 964.00 182.13 963.78
  Q 186.28 963.72 197.36 964.02
  Q 204.60 964.22 212.62 963.51
  Q 218.93 962.95 221.38 962.83
  Q 221.91 962.81 221.83 963.34
  Z"
/>
<path d="
  M 398.24 978.16
  L 348.69 978.10
  A 0.34 0.34 0.0 0 1 348.35 977.73
  L 349.49 964.11
  A 0.34 0.34 0.0 0 1 349.83 963.80
  L 399.38 963.86
  A 0.34 0.34 0.0 0 1 399.72 964.23
  L 398.58 977.85
  A 0.34 0.34 0.0 0 1 398.24 978.16
  Z"
/>
<rect x="-19.56" y="-7.29" transform="translate(487.44,970.96) rotate(0.3)" width="39.12" height="14.58" rx="0.27"/>
<path d="
  M 273.61 964.21
  Q 272.22 966.03 271.70 968.20
  Q 270.14 974.75 269.61 977.84
  Q 269.54 978.24 269.15 978.24
  L 233.42 978.24
  Q 232.84 978.24 232.93 977.67
  L 234.86 965.08
  A 1.89 1.89 0.0 0 1 236.76 963.48
  L 273.51 964.00
  Q 273.76 964.01 273.61 964.21
  Z"
/>
<path d="
  M 335.05 978.15
  L 283.71 978.14
  A 0.33 0.33 0.0 0 1 283.38 977.77
  L 285.16 964.07
  A 0.33 0.33 0.0 0 1 285.49 963.78
  L 336.31 964.10
  A 0.33 0.33 0.0 0 1 336.64 964.46
  L 335.38 977.85
  A 0.33 0.33 0.0 0 1 335.05 978.15
  Z"
/>
<path d="
  M 411.94 978.25
  A 0.29 0.29 0.0 0 1 411.65 977.96
  L 411.63 965.59
  A 1.62 0.23 89.9 0 1 411.86 963.97
  L 454.96 963.89
  A 1.62 0.23 89.9 0 1 455.19 965.51
  L 455.21 977.88
  A 0.29 0.29 0.0 0 1 454.92 978.17
  L 411.94 978.25
  Z"
/>
<path d="
  M 569.01 965.56
  Q 568.45 968.89 568.89 977.86
  Q 568.91 978.21 568.56 978.21
  L 520.68 978.21
  Q 519.35 978.21 519.35 976.88
  L 519.35 964.57
  Q 519.35 964.10 519.82 964.10
  Q 537.70 964.04 562.43 964.18
  C 564.49 964.19 567.15 963.57 568.71 963.50
  Q 569.32 963.47 569.25 964.08
  Q 569.22 964.29 569.01 965.56
  Z"
/>
<rect x="-21.47" y="-7.06" transform="translate(602.66,971.20) rotate(0.4)" width="42.94" height="14.12" rx="0.26"/>
<rect x="636.67" y="964.16" width="45.60" height="14.04" rx="0.26"/>
<path d="
  M 694.67 964.03
  L 739.49 964.34
  A 0.34 0.34 0.0 0 1 739.83 964.67
  L 740.04 977.96
  A 0.34 0.34 0.0 0 1 739.70 978.31
  L 695.15 978.02
  A 0.34 0.34 0.0 0 1 694.81 977.69
  L 694.33 964.38
  A 0.34 0.34 0.0 0 1 694.67 964.03
  Z"
/>
<path d="
  M 789.51 964.22
  Q 789.56 970.60 790.35 977.85
  Q 790.39 978.30 789.95 978.30
  L 753.02 978.30
  Q 752.35 978.30 752.38 977.63
  Q 752.79 969.47 751.34 964.72
  Q 751.16 964.14 751.76 964.14
  L 789.43 964.14
  A 0.08 0.08 0.0 0 1 789.51 964.22
  Z"
/>
<path d="
  M 837.44 978.15
  L 803.58 978.17
  A 0.39 0.39 0.0 0 1 803.19 977.81
  L 802.18 964.49
  A 0.39 0.39 0.0 0 1 802.57 964.07
  L 833.02 964.21
  A 0.39 0.39 0.0 0 1 833.39 964.47
  L 837.81 977.64
  A 0.39 0.39 0.0 0 1 837.44 978.15
  Z"
/>
<path d="
  M 958.72 978.08
  L 910.83 977.98
  A 0.30 0.30 0.0 0 1 910.56 977.81
  L 904.41 964.77
  A 0.30 0.30 0.0 0 1 904.68 964.34
  L 950.23 964.13
  A 0.30 0.30 0.0 0 1 950.49 964.27
  L 958.98 977.62
  A 0.30 0.30 0.0 0 1 958.72 978.08
  Z"
/>
<path d="
  M 898.09 977.53
  A 0.36 0.36 0.0 0 1 897.77 978.05
  L 851.45 978.05
  Q 850.77 978.05 850.52 977.41
  Q 848.07 970.96 847.13 964.55
  Q 847.09 964.27 847.37 964.27
  Q 865.88 964.18 883.32 964.36
  Q 884.49 964.38 888.97 964.76
  Q 890.23 964.87 892.08 967.42
  Q 895.16 971.69 898.09 977.53
  Z"
/>
</g>
</svg>
